# xmcd CD database file
#
# Track frame offsets:
#	150
#	16990
#	34133
#	51904
#	63808
#	80816
#	91879
#	106336
#	121186
#	139623
#	154658
#	170127
#	182960
#	198670
#
# Disc length: 2868 seconds
#
# Revision: 0
# Processed by: cddbd v1.5.2PL0 Copyright (c) Steve Scherf et al.
# Submitted via: CDex 1.51
#
DISCID=bd0b320e
DTITLE=Get up and Dance Special nr 53 - Get up and Dance Special nr 53
DYEAR=2007
DGENRE=Country
TTITLE0=2 times
TTITLE1=Reckless abandon
TTITLE2=Feel the Magic
TTITLE3=One more Cha
TTITLE4=Sky high
TTITLE5=Are You Ready
TTITLE6=Give A Little love
TTITLE7=Chompin'at The bit
TTITLE8=Haert of An Angel
TTITLE9=Gigolo
TTITLE10=These Arms
TTITLE11=Back to the country
TTITLE12=The Blue Grass Waltz
TTITLE13=Life's Highway
EXTD=YEAR: 2007
EXTT0=
EXTT1=
EXTT2=
EXTT3=
EXTT4=
EXTT5=
EXTT6=
EXTT7=
EXTT8=
EXTT9=
EXTT10=
EXTT11=
EXTT12=
EXTT13=
PLAYORDER=
